<svg width="12" height="11" viewBox="0 0 12 11" fill="none" xmlns="http://www.w3.org/2000/svg">
<path id="Vector" d="M11.1249 2.01549L10.4675 8.2245C10.4473 8.38868 10.3632 8.5395 10.2335 8.64447C10.1038 8.74944 9.93881 8.80016 9.77407 8.78572C9.60932 8.77127 9.45801 8.69281 9.35271 8.56724C9.24742 8.44166 9.19657 8.27901 9.21112 8.11433L9.70822 3.41943L1.06939 10.5338C0.939106 10.6411 0.772299 10.6931 0.605663 10.6785C0.439027 10.6639 0.286214 10.5838 0.180839 10.4558C0.0754638 10.3279 0.0261594 10.1626 0.0437723 9.99621C0.0613849 9.82987 0.144472 9.67614 0.274755 9.56885L8.91358 2.45452L4.21049 2.04213C4.12692 2.03627 4.04565 2.01385 3.97143 1.97619C3.89721 1.93853 3.83153 1.88638 3.7782 1.82279C3.72488 1.75919 3.68499 1.68543 3.66086 1.6058C3.63674 1.52616 3.62885 1.44226 3.63767 1.35897C3.64648 1.27569 3.67183 1.1947 3.71222 1.12072C3.75262 1.04675 3.80725 0.981271 3.87293 0.928112C3.93862 0.874955 4.01404 0.835179 4.09479 0.811109C4.17555 0.787038 4.26002 0.779152 4.34328 0.787913L10.5631 1.33329C10.7297 1.34793 10.8825 1.42802 10.9879 1.55595C11.0932 1.68388 11.1425 1.84917 11.1249 2.01549Z" fill="#202020"/>
</svg>
